<svg width="387" height="172" viewBox="0 0 387 172" fill="none" xmlns="http://www.w3.org/2000/svg">
<path fill-rule="evenodd" clip-rule="evenodd" d="M100.839 0.744385L387 158.32V339.737H-161L-158.41 164.83L100.839 0.744385Z" fill="#30243B"/>
<path fill-rule="evenodd" clip-rule="evenodd" d="M96.9015 13.3434L113 17.2829L111.759 6.8297L200.389 55.8143H185.354L179 60.4938L143.257 40.3122L170.73 66.5838L163.558 71.8659L167.977 83.8777L136.082 98.2848L103.679 66.1796L124.527 69.9798L111.326 49.5204L143.257 64.366L116.24 40.3122L128.403 44.4125L96.9015 13.3434Z" fill="url(#paint0_linear_113_411)"/>
<path fill-rule="evenodd" clip-rule="evenodd" d="M204.043 66.0086L213.701 64.3654L309.912 117.801L296.444 131.824L281.601 126.797L290.959 137.562L267.814 161.695L234.318 147.012L253.423 181.398L193.154 138.736L191.551 111.622L176.439 90.9961L190.545 94.615L185.722 75.0095L207.123 72.7378L204.043 66.0086Z" fill="url(#paint1_linear_113_411)"/>
<path fill-rule="evenodd" clip-rule="evenodd" d="M77.1473 96.6917L107.457 112.82V101.958L170.047 156.988L160.141 134.972L196.708 147.013L232.552 190.154L204.798 194.098L148.645 167.391L176.984 198.051L143.528 202.805L77.1473 143.196V124.246L96.9015 134.972L77.1473 96.6917Z" fill="url(#paint2_linear_113_411)"/>
<path fill-rule="evenodd" clip-rule="evenodd" d="M-21.9067 101.863L-24.6745 87.2276L6.57669 98.2847L37.8279 123.743L6.6264 120.47L-21.9067 101.863Z" fill="url(#paint3_linear_113_411)"/>
<path fill-rule="evenodd" clip-rule="evenodd" d="M-6.996 142.506L-17.0538 125.987L8.2524 131.926L4.18234 138.625L-6.996 142.506Z" fill="url(#paint4_linear_113_411)"/>
<path fill-rule="evenodd" clip-rule="evenodd" d="M5.03943 75.7993H14.9528L10.3759 66.1795L23.7725 72.04L37.8279 83.5366L19.7545 88.8805L5.03943 75.7993Z" fill="url(#paint5_linear_113_411)"/>
<defs>
<linearGradient id="paint0_linear_113_411" x1="-161" y1="0.744385" x2="-161" y2="339.737" gradientUnits="userSpaceOnUse">
<stop stop-color="#B6A5C4"/>
<stop offset="1" stop-color="#31253B"/>
</linearGradient>
<linearGradient id="paint1_linear_113_411" x1="-161" y1="0.744385" x2="-161" y2="339.737" gradientUnits="userSpaceOnUse">
<stop stop-color="#B6A5C4"/>
<stop offset="1" stop-color="#31253B"/>
</linearGradient>
<linearGradient id="paint2_linear_113_411" x1="-161" y1="0.744385" x2="-161" y2="339.737" gradientUnits="userSpaceOnUse">
<stop stop-color="#B6A5C4"/>
<stop offset="1" stop-color="#31253B"/>
</linearGradient>
<linearGradient id="paint3_linear_113_411" x1="-161" y1="0.744385" x2="-161" y2="339.737" gradientUnits="userSpaceOnUse">
<stop stop-color="#B6A5C4"/>
<stop offset="1" stop-color="#31253B"/>
</linearGradient>
<linearGradient id="paint4_linear_113_411" x1="-161" y1="0.744385" x2="-161" y2="339.737" gradientUnits="userSpaceOnUse">
<stop stop-color="#B6A5C4"/>
<stop offset="1" stop-color="#31253B"/>
</linearGradient>
<linearGradient id="paint5_linear_113_411" x1="5.03943" y1="66.1794" x2="5.03943" y2="88.8804" gradientUnits="userSpaceOnUse">
<stop stop-color="#B6A5C4"/>
<stop offset="1" stop-color="#31253B"/>
</linearGradient>
</defs>
</svg>
